<svg xmlns="http://www.w3.org/2000/svg" viewBox="0 0 320 200">
  <defs>
    <linearGradient id="bg" x1="0" y1="0" x2="1" y2="1"><stop offset="0" stop-color="#3A0A2C"/><stop offset="1" stop-color="#12050F"/></linearGradient>
    <radialGradient id="halo" cx=".22" cy=".18" r=".75"><stop offset="0" stop-color="#FF2D8A" stop-opacity=".55"/><stop offset="1" stop-color="#FF2D8A" stop-opacity="0"/></radialGradient>
  </defs>
  <rect width="320" height="200" fill="url(#bg)"/>
  <rect width="320" height="200" fill="url(#halo)"/>
  <rect x="124" y="18" width="72" height="100" rx="12" fill="#0C0409" stroke="#F7E9E0" stroke-opacity=".28"/>
  <rect x="132" y="28" width="56" height="80" rx="7" fill="#FF2D8A" fill-opacity=".22"/>
  <path d="M152 56 l22 12 -22 12z" fill="#FF2D8A"/>
  <rect x="22" y="130" width="276" height="16" rx="5" fill="#F7E9E0" fill-opacity=".07"/>
  <rect x="26" y="133" width="58" height="10" rx="3" fill="#FF6FB3"/>
  <rect x="88" y="133" width="44" height="10" rx="3" fill="#FF2D8A"/>
  <rect x="136" y="133" width="72" height="10" rx="3" fill="#FF6FB3"/>
  <rect x="212" y="133" width="82" height="10" rx="3" fill="#FF2D8A"/>
  <rect x="22" y="152" width="276" height="16" rx="5" fill="#F7E9E0" fill-opacity=".07"/>
  <rect x="26" y="155" width="268" height="10" rx="3" fill="#2BD9C7" fill-opacity=".85"/>
  <rect x="22" y="174" width="276" height="12" rx="4" fill="#F7E9E0" fill-opacity=".07"/>
  <rect x="58" y="176" width="36" height="8" rx="3" fill="#FFC93C"/>
  <rect x="168" y="176" width="46" height="8" rx="3" fill="#7B4BFF"/>
  <rect x="150" y="124" width="3" height="66" rx="1.5" fill="#FFC93C"/>
  <circle cx="151.5" cy="124" r="5" fill="#FFC93C"/>
</svg>
